<svg xmlns="http://www.w3.org/2000/svg" width="640" height="160" viewBox="0 0 640 160">
  <defs>
    <style>
      .cls-1 {
        fill: #3056d3;
        fill-rule: evenodd;
      }
    </style>
  </defs>
  <path id="Color_Fill_1" data-name="Color Fill 1" class="cls-1" d="M124.181,132.488c11.983,0,20.971-5.992,24.715-15.953h0.6v14.156H180.2V22.615H149.5V62.91h-0.6c-3.894-10.486-12.732-16.7-24.566-16.7-20.821,0-32.43,15.354-32.43,43.065v0.075C91.9,116.91,103.659,132.488,124.181,132.488Zm12.058-24.716c-8.014,0-13.182-7.04-13.182-18.424V89.273c0-11.534,5.243-18.35,13.182-18.35,8.014,0,13.257,6.816,13.257,18.424v0.075C149.5,100.957,144.328,107.772,136.239,107.772Zm96.81,24.716c27.038,0,43.515-15.5,43.515-43.065v-0.15c0-27.187-16.927-43.065-43.515-43.065-26.513,0-43.44,16.1-43.44,43.065v0.15C189.609,116.91,205.937,132.488,233.049,132.488Zm0.075-22.768c-7.789,0-12.358-7.19-12.358-20.3v-0.15c0-12.807,4.719-20.3,12.283-20.3,7.49,0,12.358,7.49,12.358,20.3v0.15C245.407,102.455,240.764,109.72,233.124,109.72Zm53.222,20.971h30.707V106.874l3.97-5.168,17.151,28.985H373.45l-29.434-47.41L371.5,48.005H337.725L317.653,77.889h-0.6V22.615H286.346V130.691Zm90.521,0h30.708V106.874l3.969-5.168L428.7,130.691h35.277l-29.435-47.41,27.487-35.276H428.246L408.174,77.889h-0.6V22.615H376.867V130.691Zm127.746,1.8c27.038,0,43.515-15.5,43.515-43.065v-0.15c0-27.187-16.927-43.065-43.515-43.065-26.513,0-43.44,16.1-43.44,43.065v0.15C461.173,116.91,477.5,132.488,504.613,132.488Zm0.075-22.768c-7.789,0-12.358-7.19-12.358-20.3v-0.15c0-12.807,4.719-20.3,12.283-20.3,7.49,0,12.358,7.49,12.358,20.3v0.15C516.971,102.455,512.327,109.72,504.688,109.72Z"/>
</svg>
