<svg width="283" height="64" viewBox="0 0 283 64" fill="none" 
    xmlns:xlink="http://www.w3.org/1999/xlink">
  <path id="Color_Fill_1" data-name="Color Fill 1" class="cls-1" d="M92,0c58.469-1.456,91.7,25.732,127,48,67.841,42.791,127.6,93.982,192,140,116.791,83.456,233.982,157.589,392,201,75.455,20.729,188.764,26.5,270,6,66.73-16.838,122.23-41.078,177-68,55.32,26.028,110.03,51.146,177,68,92.54,23.289,215.41,11.749,296-13,178.23-54.738,304.68-151.022,438-249,58.42-42.938,116.31-93.969,187-123,37.49-15.4,81.74-11.423,103,16,39.85,51.413,34.91,129.69,48,210q0.495,42.5,1,85-0.495,38.5-1,77-2.505,50.495-5,101-4.5,53.994-9,108c-15.18,85.205-23.24,169.8-43,248-18.45,73.016-34.4,141.657-56,210-67.35,213.13-164.5,400.68-273,573-61.53,97.72-136.48,182.89-207,271-73.79,92.2-168.98,183.99-262,257-89.88,70.55-178.4,139.7-278,202-27.36,17.11-55.51,33.13-84,50-10.07,5.97-20.85,15.92-34,18q-73.995-43.995-148-88c-89.44-56.35-170.6-122.59-252-187-40.824-32.31-74.765-73.55-115-106-41.612-33.56-81.471-77.33-115-119l-70-79c-45.256-58.01-90.264-116.29-133-177C249.853,1445.4,136.392,1171.32,56,851,33.581,761.673,27.485,667.1,11,570L4,468c-6.416-40.861-4-87.108-4-132l1-74,2-58C15.15,128.842,14.972,45.551,66,10ZM380,466c-36.084,29.177-31,114.919-31,179-0.011,148.5,16.918,285.418,50,405,62.23,224.94,146.982,413.59,265,581,38.341,54.39,82.94,102.93,124,154,51.4,63.93,114.592,123.05,179,174,64.81,51.26,128.89,100.92,201,146,20.67,12.92,59.1,44.09,84,48q51.495-30.495,103-61c60.94-38.38,117.24-83.21,173-127,51.2-40.21,110.28-93.45,151-144l48-51c36.61-45.82,74.87-90.67,109-139,112.45-159.23,194.17-338.6,257-549,39.16-131.153,57.97-281.664,58-448,0.01-48.789,2.35-167.2-39-168-52.63,22.19-116.1,150.739-148,203-106.17,173.956-211.9,357.82-376,474-54.98,38.92-141.89,87.94-242,66-36.59-8.02-66.73-20.54-96-35-29.38,14.28-59.35,26.99-96,35-94.7,20.7-178.432-23.25-232-59C759.518,1041.56,653.777,862.047,551,694c-37.295-60.98-71.7-123.45-113-180C425.063,496.285,409.27,466.324,380,466Zm850,129c-18.74,7.356-39.7,6.2-57,13-62.34,24.5-109.46,71.787-132,136-45.965,130.927,41.12,239.444,129,275,25.67,10.39,65.08,21.53,103,15,83.76-14.43,146.03-56.532,176-124C1523.9,741.392,1400.33,594.133,1230,595Z"/>
</svg>